<?xml version="1.0" encoding="UTF-8"?>
<svg id="Layer_1" data-name="Layer 1" xmlns="http://www.w3.org/2000/svg" viewBox="0 0 768 768">
  <defs>
    <style>
      .cls-1 {
        fill: #fff;
      }
    </style>
  </defs>
  <path d="M0,0c256,0,512,0,768,0,0,256,0,512,0,768-256,0-512,0-768,0C0,512,0,256,0,0ZM741.41,734.52c0-8.19,0-14.98,0-21.78,.09-222.21,.18-444.42,.26-666.64q0-18.72-18.22-18.74c-225.79,.14-451.57,.3-677.36,.45-4.46,0-8.92,0-13.49,0-.24,3.67-.47,5.49-.47,7.31,0,225.91,.03,451.81,.08,677.72,0,21.09,.27,21.32,22.16,21.34,223.95,.13,447.9,.23,671.84,.34,4.52,0,9.05,0,15.19,0Z"/>
  <path class="cls-1" d="M741.41,734.52c-6.15,0-10.67,0-15.19,0-223.95-.11-447.9-.21-671.84-.34-21.89-.01-22.16-.25-22.16-21.34-.05-225.91-.07-451.81-.08-677.72,0-1.82,.23-3.65,.47-7.31,4.57,0,9.03,0,13.49,0,225.79-.15,451.57-.3,677.36-.45q18.2-.01,18.22,18.74c-.08,222.21-.17,444.42-.26,666.64,0,6.8,0,13.59,0,21.78Zm-613.19-28.11c5.81-26.44,20.48-47.6,37.3-67.41,16.04-18.9,34.66-33.34,61.53-32.02,3.09,.15,6.3-1.25,9.4-2.11,26.18-7.23,45.19-24.8,62.43-44.29,40.25-45.52,78.19-93.22,120.41-136.83,45.49-46.98,101.32-80.06,164.16-99.21,41.68-12.71,84.46-21.83,128.25-32.94V55.86H60.91V706.41h67.31Z"/>
  <path d="M128.22,706.41H60.91V55.86H711.7v235.74c-43.79,11.11-86.57,20.23-128.25,32.94-62.84,19.16-118.67,52.23-164.16,99.21-42.22,43.6-80.16,91.31-120.41,136.83-17.23,19.49-36.25,37.06-62.43,44.29-3.1,.86-6.31,2.26-9.4,2.11-26.86-1.31-45.48,13.12-61.53,32.02-16.82,19.81-31.49,40.97-37.3,67.41ZM636,245.53c10.56-1.18,22.26-1.44,33.45-3.95,26.32-5.9,35.96-31.98,17.7-51.59-12.59-13.53-27.8-26.34-44.37-34.18-53.3-25.23-110.32-28.36-168.16-22.03-11.66,1.28-24.94,3.51-28.51,15.9-3.5,12.16,5.88,21.42,15.04,29.02,50.38,41.78,108.65,62.96,174.84,66.83Z"/>
  <path class="cls-1" d="M636,245.53c-66.19-3.88-124.47-25.05-174.84-66.83-9.16-7.6-18.53-16.86-15.04-29.02,3.56-12.39,16.85-14.63,28.51-15.9,57.85-6.33,114.87-3.2,168.16,22.03,16.56,7.84,31.78,20.65,44.37,34.18,18.26,19.62,8.62,45.69-17.7,51.59-11.19,2.51-22.89,2.77-33.45,3.95Z"/>
</svg>